<svg width="70" height="70" viewBox="0 0 70 70" fill="none" xmlns="http://www.w3.org/2000/svg">
<rect width="70" height="70" rx="35" fill="#B0A27B"/>
<path d="M51.6277 42.6211C52.1746 42.8945 52.5848 43.5098 52.5848 44.1934C52.5848 44.2617 52.5848 44.3984 52.5848 44.5352L50.9441 51.6445C50.7391 52.3965 50.1238 52.875 49.3719 52.875C31.8035 52.875 17.6531 38.7246 17.6531 21.1562C17.6531 20.4043 18.1316 19.7891 18.8836 19.584L25.993 17.9434C26.1297 17.9434 26.2664 17.875 26.3348 17.875C27.0184 17.875 27.6336 18.2852 27.907 18.9004L31.1883 26.5566C31.2566 26.7617 31.325 26.9668 31.325 27.1719C31.325 27.7188 31.0516 28.1973 30.7098 28.4707L26.5398 31.8887C29.0691 37.2207 33.3074 41.459 38.6395 43.9883L42.0574 39.8184C42.3309 39.4766 42.8094 39.2031 43.2879 39.2031C43.5613 39.2031 43.7664 39.2715 43.9715 39.3398L51.6277 42.6211Z" fill="white"/>
</svg>
