<svg width="191" height="52" viewBox="0 0 191 52" fill="none" xmlns="http://www.w3.org/2000/svg">
<path d="M1.88097 22.305L2.87097 17.883L11.121 20.061C13.849 20.809 15.444 22.602 15.906 25.44L16.302 28.014C16.346 28.41 16.368 28.718 16.368 28.938C16.368 30.126 16.06 31.259 15.444 32.337C14.85 33.415 13.992 34.295 12.87 34.977C11.748 35.659 10.45 36 8.97597 36H7.12797C5.47797 36 4.15797 35.483 3.16797 34.449C2.19997 33.393 1.71597 32.04 1.71597 30.39C1.71597 29.708 1.79297 29.059 1.94697 28.443L3.29997 22.668L1.88097 22.305ZM5.74197 29.004C5.78597 29.444 5.97297 29.796 6.30297 30.06C6.65497 30.324 7.09497 30.456 7.62297 30.456H9.53697C10.681 30.456 11.55 30.192 12.144 29.664L11.649 26.628C11.561 26.034 11.352 25.539 11.022 25.143C10.692 24.747 10.252 24.483 9.70197 24.351L6.99597 23.625L5.74197 29.004ZM36.8424 30.456C37.2824 30.456 37.6564 30.731 37.9644 31.281C38.2724 31.809 38.4264 32.458 38.4264 33.228C38.4264 33.998 38.2724 34.658 37.9644 35.208C37.6564 35.736 37.2824 36 36.8424 36H33.7734C33.5754 37.166 33.1354 38.178 32.4534 39.036C31.7714 39.916 30.8804 40.521 29.7804 40.851L23.9724 42.699L22.4544 38.343L28.1964 36.528L30.0114 35.967L29.8794 35.01L28.2294 35.406C27.7674 35.494 27.2614 35.538 26.7114 35.538H23.9724C22.8284 35.538 21.8384 35.164 21.0024 34.416C20.1884 33.646 19.7044 32.667 19.5504 31.479L19.0884 28.311C19.0224 27.783 18.9894 27.266 18.9894 26.76C18.9894 24.714 19.5284 23.02 20.6064 21.678C21.7064 20.314 23.2904 19.412 25.3584 18.972L30.7374 17.784L32.4864 19.269C33.3884 20.017 33.8394 20.985 33.8394 22.173L33.8724 30.456H36.8424ZM29.5824 30.621V22.767L25.3254 23.658C23.8954 23.966 23.1804 24.769 23.1804 26.067C23.1804 26.221 23.2024 26.452 23.2464 26.76L23.7744 30.621H29.5824ZM45.382 43.128C43.622 42.688 42.258 41.951 41.29 40.917C40.322 39.905 39.838 38.607 39.838 37.023V35.967L36.835 36C36.395 36 36.021 35.736 35.713 35.208C35.405 34.658 35.251 33.998 35.251 33.228C35.251 32.458 35.405 31.809 35.713 31.281C36.021 30.731 36.395 30.456 36.835 30.456H39.838V24.45C39.838 23.196 40.267 22.162 41.125 21.348L43.039 19.467H48.385C49.573 19.467 50.662 19.72 51.652 20.226C52.642 20.71 53.423 21.414 53.995 22.338C54.589 23.262 54.886 24.318 54.886 25.506C54.886 25.77 54.842 26.21 54.754 26.826L54.094 30.456H57.196C57.614 30.456 57.977 30.731 58.285 31.281C58.593 31.809 58.747 32.458 58.747 33.228C58.747 33.998 58.593 34.658 58.285 35.208C57.977 35.736 57.614 36 57.196 36H53.731L53.698 39.663C53.654 40.653 53.313 41.522 52.675 42.27L50.827 44.481L45.382 43.128ZM50.464 27.288C50.508 26.936 50.53 26.694 50.53 26.562C50.53 25.726 50.266 25.066 49.738 24.582C49.21 24.098 48.561 23.856 47.791 23.856H43.666V30.423H49.87L50.464 27.288ZM43.732 34.449V36.231C43.732 36.913 43.941 37.496 44.359 37.98C44.799 38.486 45.371 38.827 46.075 39.003L49.771 39.927L49.804 34.449H43.732ZM57.1699 36C56.7299 36 56.3559 35.736 56.0479 35.208C55.7399 34.658 55.5859 33.998 55.5859 33.228C55.5859 32.458 55.7399 31.809 56.0479 31.281C56.3559 30.731 56.7299 30.456 57.1699 30.456H67.5649H68.7199V28.278L68.0929 28.575C67.5649 28.839 67.0039 28.971 66.4099 28.971H62.7799C61.7019 28.971 60.7779 28.641 60.0079 27.981C59.2379 27.299 58.7759 26.419 58.6219 25.341L58.2589 22.668C58.1929 22.206 58.1599 21.766 58.1599 21.348C58.1599 19.588 58.6659 18.092 59.6779 16.86C60.6899 15.628 62.0869 14.814 63.8689 14.418L69.7429 13.164L71.4589 14.583C71.8769 14.935 72.1959 15.375 72.4159 15.903C72.6579 16.409 72.7789 16.948 72.7789 17.52V30.225C72.7789 31.325 72.5259 32.315 72.0199 33.195C71.5359 34.075 70.8539 34.768 69.9739 35.274C69.0939 35.758 68.1039 36 67.0039 36H57.1699ZM68.6869 17.817L64.2319 18.774C63.5279 18.928 63.0109 19.192 62.6809 19.566C62.3509 19.918 62.1859 20.402 62.1859 21.018C62.1859 21.15 62.2079 21.414 62.2519 21.81L62.6809 24.45H68.7199L68.6869 17.817ZM61.2949 6.79498H70.5019V10.689H61.2949V6.79498ZM79.6099 28.905C79.5439 28.377 79.5109 27.871 79.5109 27.387C79.5109 25.385 80.0719 23.713 81.1939 22.371C82.3379 21.007 83.8779 20.094 85.8139 19.632L90.1039 18.609V16.695L94.4269 15.606V28.179C94.4269 28.883 94.6359 29.444 95.0539 29.862C95.4939 30.258 96.0439 30.456 96.7039 30.456H97.8919C98.3319 30.456 98.7059 30.731 99.0139 31.281C99.3219 31.809 99.4759 32.458 99.4759 33.228C99.4759 33.976 99.3219 34.625 99.0139 35.175C98.7059 35.725 98.3319 36 97.8919 36H96.3409C95.4169 36 94.5699 35.846 93.7999 35.538C93.0299 35.208 92.3699 34.735 91.8199 34.119L90.4339 36H84.8239C84.2299 36 83.6469 35.879 83.0749 35.637C82.5249 35.373 82.0409 35.01 81.6229 34.548L80.2039 32.898L79.6099 28.905ZM90.3679 30.654C90.1919 29.994 90.1039 29.301 90.1039 28.575V23.361L86.2759 24.285C84.6479 24.703 83.8339 25.693 83.8339 27.255C83.8339 27.409 83.8559 27.64 83.8999 27.948L84.3289 30.654H90.3679ZM97.8713 36C97.4313 36 97.0573 35.725 96.7493 35.175C96.4413 34.625 96.2873 33.976 96.2873 33.228C96.2873 32.458 96.4413 31.809 96.7493 31.281C97.0573 30.731 97.4313 30.456 97.8713 30.456H100.874C102.194 30.456 103.228 30.192 103.976 29.664L101.963 20.094L106.22 18.048L108.002 26.496C108.178 27.332 108.266 28.102 108.266 28.806C108.266 30.236 107.947 31.501 107.309 32.601C106.693 33.679 105.802 34.515 104.636 35.109C103.492 35.703 102.172 36 100.676 36H97.8713ZM101.567 11.481H106.121V15.837H101.567V11.481ZM117.366 36C115.474 36 113.945 35.406 112.779 34.218C111.613 33.03 111.03 31.424 111.03 29.4L110.964 15.342L115.287 14.187V27.981C115.287 28.773 115.496 29.389 115.914 29.829C116.354 30.247 116.948 30.456 117.696 30.456H129.279L128.685 25.968C128.531 24.912 128.146 24.098 127.53 23.526C126.914 22.932 126.122 22.635 125.154 22.635C125 22.635 124.725 22.657 124.329 22.701L119.346 23.526L119.808 18.741L123.9 18.048C124.362 17.96 124.89 17.916 125.484 17.916C127.442 17.916 129.092 18.532 130.434 19.764C131.798 20.974 132.634 22.613 132.942 24.681L133.734 30.456H136.737L135.219 36H117.366ZM122.217 11.25H126.771V15.606H122.217V11.25Z" fill="#4F2C19"/>
<mask id="mask0_1_1198" style="mask-type:luminance" maskUnits="userSpaceOnUse" x="139" y="0" width="52" height="52">
<path d="M191 0H139V52H191V0Z" fill="white"/>
</mask>
<g mask="url(#mask0_1_1198)">
<path d="M155.142 5.48905C156.103 5.521 157.104 6.34748 157.587 7.11877C159.67 10.4378 159.442 15.7903 156.592 18.6546C155.4 19.8501 154.017 19.5828 153.582 17.879C153.205 16.4081 153.36 14.9633 154.046 13.5447C154.73 12.127 155.722 10.2867 155.625 8.41441C155.582 7.57486 155.184 6.64815 154.92 5.77519C154.861 5.57765 154.935 5.48227 155.142 5.48905Z" fill="#4F2C19"/>
<path d="M153.18 5.67495C155.224 6.27484 154.746 10.2025 154.073 11.501C153.02 13.5345 152.126 15.1265 152.446 17.3706C152.546 18.0707 152.904 18.7142 153.226 19.3751C153.297 19.5194 153.261 19.6302 153.119 19.7077C153.076 19.731 153.004 19.7402 152.903 19.7353C152.838 19.7314 152.77 19.7164 152.697 19.6903C150.761 18.9989 149.863 17.5972 149.388 15.5942C148.719 12.7676 149.052 9.57931 150.731 7.13182C151.22 6.41718 152.2 5.38735 153.18 5.67495Z" fill="#4F2C19"/>
<path d="M177.496 19.4288C177.479 19.3523 177.496 19.2758 177.546 19.1993C177.548 19.1958 177.548 19.1918 177.548 19.1878C177.547 19.1839 177.546 19.1802 177.543 19.1772C177.54 19.1743 177.536 19.1724 177.533 19.1716C177.529 19.1709 177.524 19.1715 177.521 19.1732L177.489 19.1921C177.467 19.2046 177.452 19.1998 177.443 19.1775C177.151 18.4673 177.619 18.3046 177.733 17.7744C177.943 16.7896 176.614 15.9515 175.783 15.7787C175.368 15.6915 174.804 15.6784 174.583 15.2456C174.565 15.2088 174.536 15.1851 174.496 15.1744C173.862 15.0011 173.266 14.7454 172.708 14.4075C172.681 14.3913 172.65 14.3828 172.619 14.3828L172.324 14.377C172.28 14.377 172.242 14.3625 172.21 14.3334L171.745 13.9252C174.665 10.8343 176.785 8.59985 178.105 7.22189C178.556 6.75128 179.074 6.67865 179.754 6.74692C181.576 6.92849 183.38 7.25094 185.2 7.41508C186.073 7.49497 187.075 7.6591 187.334 8.50882C187.534 9.16391 186.722 9.84804 186.319 10.2693C183.387 13.3321 180.447 16.3853 177.496 19.4288Z" fill="#4F2C19"/>
<path d="M171.745 13.9253L172.21 14.3334C172.242 14.3625 172.28 14.377 172.324 14.377L172.619 14.3828C172.65 14.3828 172.681 14.3913 172.708 14.4075C173.266 14.7454 173.862 15.0011 174.496 15.1744C174.536 15.1851 174.565 15.2088 174.584 15.2456C174.804 15.6784 175.368 15.6915 175.783 15.7787C176.614 15.9515 177.943 16.7896 177.733 17.7744C177.619 18.3046 177.151 18.4673 177.444 19.1776C177.452 19.1998 177.467 19.2047 177.489 19.1921L177.521 19.1732C177.525 19.1715 177.529 19.1709 177.533 19.1717C177.537 19.1724 177.54 19.1744 177.543 19.1773C177.546 19.1802 177.547 19.1839 177.548 19.1878C177.548 19.1918 177.548 19.1958 177.546 19.1993C177.496 19.2758 177.48 19.3523 177.496 19.4288C170.307 26.8192 163.209 34.2982 156.005 41.6755C155.243 42.4551 154.489 43.2423 153.743 44.0373C153.494 44.3007 153.158 44.4072 152.733 44.3569C150.607 44.1071 148.743 43.7788 146.375 43.6146C145.154 43.5304 144.431 42.4062 145.354 41.3821C146.332 40.2995 146.962 39.6115 147.244 39.3181C155.398 30.8412 163.691 22.4951 171.745 13.9253ZM168.996 20.7579L168.776 20.9249C168.774 20.9265 168.772 20.9285 168.771 20.9307C168.769 20.933 168.769 20.9355 168.768 20.9381C168.768 20.9407 168.768 20.9433 168.769 20.9458C168.77 20.9483 168.771 20.9506 168.773 20.9525L168.827 21.0222C168.926 21.1514 169.034 21.2655 169.126 21.3396C169.219 21.4136 169.29 21.4416 169.322 21.4173L169.329 21.4115C169.361 21.3861 169.352 21.3109 169.305 21.2024C169.257 21.0938 169.175 20.9607 169.077 20.832L169.024 20.7622C169.023 20.76 169.021 20.7582 169.019 20.7567C169.016 20.7553 169.014 20.7544 169.011 20.754C169.009 20.7536 169.006 20.7537 169.003 20.7544C169.001 20.755 168.998 20.7562 168.996 20.7579Z" fill="#4F2C19"/>
<path d="M168.996 20.7579C168.998 20.7562 169.001 20.755 169.003 20.7544C169.006 20.7537 169.009 20.7535 169.011 20.754C169.014 20.7544 169.016 20.7553 169.019 20.7567C169.021 20.7582 169.023 20.76 169.024 20.7622L169.077 20.832C169.175 20.9606 169.257 21.0938 169.305 21.2024C169.352 21.3109 169.361 21.3861 169.329 21.4115L169.322 21.4173C169.29 21.4416 169.219 21.4136 169.126 21.3396C169.034 21.2655 168.926 21.1514 168.827 21.0222L168.773 20.9525C168.771 20.9506 168.77 20.9483 168.769 20.9458C168.768 20.9433 168.768 20.9407 168.768 20.9381C168.769 20.9355 168.769 20.933 168.771 20.9307C168.772 20.9284 168.774 20.9265 168.776 20.9249L168.996 20.7579Z" fill="#4F2C19"/>
<path d="M175.4 44.7011C175.117 45.9372 173.351 44.0213 173.097 43.6626C171.493 41.3908 171.322 39.0131 171.845 36.3506C172.276 34.153 173.742 31.6096 176.139 31.0112C176.89 30.8238 176.782 31.9422 176.728 32.3635C176.247 36.0427 176.021 39.7756 175.609 43.4679C175.563 43.8834 175.493 44.2944 175.4 44.7011Z" fill="#4F2C19"/>
<path d="M176.469 45.208C176.336 45.0134 176.393 44.7098 176.412 44.476C176.6 42.211 176.803 39.9475 177.021 37.6855C177.173 36.108 177.33 33.4761 177.66 31.3772C177.695 31.1535 177.822 31.0717 178.041 31.1317C179.499 31.5341 180.677 33.2655 181.1 34.6323C181.707 36.598 181.726 38.5972 181.157 40.6297C180.656 42.4178 178.871 45.378 176.617 45.2894C176.588 45.2885 176.559 45.2806 176.534 45.2665C176.508 45.2524 176.486 45.2323 176.469 45.208Z" fill="#4F2C19"/>
</g>
</svg>
