<svg width="70" height="70" viewBox="0 0 70 70" fill="none" xmlns="http://www.w3.org/2000/svg">
<rect width="70" height="70" rx="35" fill="#B0A27B"/>
<path d="M35.1531 18.4219C44.5184 18.4219 52.1063 26.0098 52.1063 35.375C52.1063 44.7402 44.5184 52.3281 35.1531 52.3281C25.7879 52.3281 18.2 44.7402 18.2 35.375C18.2 26.0098 25.7879 18.4219 35.1531 18.4219ZM35.1531 49.0469C42.6727 49.0469 48.825 42.9629 48.825 35.375C48.825 27.8555 42.6727 21.7031 35.1531 21.7031C27.5652 21.7031 21.4813 27.8555 21.4813 35.375C21.4813 42.9629 27.5652 49.0469 35.1531 49.0469ZM39.323 41.9375L33.5125 37.6992C33.3074 37.5625 33.2391 37.2891 33.2391 37.084V25.8047C33.2391 25.3945 33.5809 24.9844 34.0594 24.9844H36.2469C36.657 24.9844 37.0672 25.3945 37.0672 25.8047V35.5117L41.5789 38.8613C41.9891 39.1348 42.0574 39.6133 41.784 40.0234L40.4852 41.7324C40.2117 42.1426 39.7332 42.2109 39.323 41.9375Z" fill="white"/>
</svg>
