<svg width="48" height="49" viewBox="0 0 48 49" fill="none" xmlns="http://www.w3.org/2000/svg">
<rect y="0.390137" width="48" height="48" rx="24" fill="#434343"/>
<path d="M24.1625 18.9995C27.1156 18.9995 29.5531 21.437 29.5531 24.3901C29.5531 27.3901 27.1156 29.7808 24.1625 29.7808C21.1625 29.7808 18.7719 27.3901 18.7719 24.3901C18.7719 21.437 21.1625 18.9995 24.1625 18.9995ZM24.1625 27.9058C26.0844 27.9058 27.6313 26.3589 27.6313 24.3901C27.6313 22.4683 26.0844 20.9214 24.1625 20.9214C22.1938 20.9214 20.6469 22.4683 20.6469 24.3901C20.6469 26.3589 22.2406 27.9058 24.1625 27.9058ZM31.0063 18.812C31.0063 19.5151 30.4438 20.0776 29.7406 20.0776C29.0375 20.0776 28.475 19.5151 28.475 18.812C28.475 18.1089 29.0375 17.5464 29.7406 17.5464C30.4438 17.5464 31.0063 18.1089 31.0063 18.812ZM34.5688 20.0776C34.6625 21.812 34.6625 27.0151 34.5688 28.7495C34.475 30.437 34.1 31.8901 32.8813 33.1558C31.6625 34.3745 30.1625 34.7495 28.475 34.8433C26.7406 34.937 21.5375 34.937 19.8031 34.8433C18.1156 34.7495 16.6625 34.3745 15.3969 33.1558C14.1781 31.8901 13.8031 30.437 13.7094 28.7495C13.6156 27.0151 13.6156 21.812 13.7094 20.0776C13.8031 18.3901 14.1781 16.8901 15.3969 15.6714C16.6625 14.4526 18.1156 14.0776 19.8031 13.9839C21.5375 13.8901 26.7406 13.8901 28.475 13.9839C30.1625 14.0776 31.6625 14.4526 32.8813 15.6714C34.1 16.8901 34.475 18.3901 34.5688 20.0776ZM32.3188 30.5776C32.8813 29.2183 32.7406 25.937 32.7406 24.3901C32.7406 22.8901 32.8813 19.6089 32.3188 18.2026C31.9438 17.312 31.2406 16.562 30.35 16.2339C28.9438 15.6714 25.6625 15.812 24.1625 15.812C22.6156 15.812 19.3344 15.6714 17.975 16.2339C17.0375 16.6089 16.3344 17.312 15.9594 18.2026C15.3969 19.6089 15.5375 22.8901 15.5375 24.3901C15.5375 25.937 15.3969 29.2183 15.9594 30.5776C16.3344 31.5151 17.0375 32.2183 17.975 32.5933C19.3344 33.1558 22.6156 33.0151 24.1625 33.0151C25.6625 33.0151 28.9438 33.1558 30.35 32.5933C31.2406 32.2183 31.9906 31.5151 32.3188 30.5776Z" fill="white"/>
</svg>
