<svg width="71" height="70" viewBox="0 0 71 70" fill="none" xmlns="http://www.w3.org/2000/svg">
<rect x="0.5" width="70" height="70" rx="35" fill="#B0A27B"/>
<path d="M34.3167 52.1914C24.3362 37.8359 22.5589 36.332 22.5589 31C22.5589 23.7539 28.3695 17.875 35.6839 17.875C42.93 17.875 48.8089 23.7539 48.8089 31C48.8089 36.332 46.9632 37.8359 36.9827 52.1914C36.3675 53.1484 34.932 53.1484 34.3167 52.1914ZM35.6839 36.4688C38.6917 36.4688 41.1527 34.0762 41.1527 31C41.1527 27.9922 38.6917 25.5312 35.6839 25.5312C32.6077 25.5312 30.2152 27.9922 30.2152 31C30.2152 34.0762 32.6077 36.4688 35.6839 36.4688Z" fill="white"/>
</svg>
