<svg width="48" height="49" viewBox="0 0 48 49" fill="none" xmlns="http://www.w3.org/2000/svg">
<rect y="0.390137" width="48" height="48" rx="24" fill="#434343"/>
<path d="M24.1745 12.7651C30.5964 12.7651 35.7995 17.9683 35.7995 24.3901C35.7995 30.812 30.5964 36.0151 24.1745 36.0151C17.7527 36.0151 12.5495 30.812 12.5495 24.3901C12.5495 17.9683 17.7527 12.7651 24.1745 12.7651ZM29.8464 20.7339C30.0339 19.9839 29.5652 19.6558 29.0495 19.8433L17.8464 24.1558C17.0964 24.437 17.0964 24.9058 17.7058 25.0933L20.5652 25.9839L27.2214 21.7651C27.5495 21.5776 27.8308 21.7183 27.5964 21.9058L22.2058 26.7808L22.0183 29.7339C22.2995 29.7339 22.4402 29.5933 22.5808 29.4526L23.987 28.0933L26.8933 30.2495C27.4558 30.5308 27.8308 30.3901 27.9714 29.7339L29.8464 20.7339Z" fill="white"/>
</svg>
