<svg width="48" height="49" viewBox="0 0 48 49" fill="none" xmlns="http://www.w3.org/2000/svg">
<rect y="0.390137" width="48" height="48" rx="24" fill="#434343"/>
<path d="M31.475 16.9839C33.4438 18.9526 34.6625 21.5308 34.6625 24.3433C34.6625 30.062 29.8813 34.7495 24.1156 34.7495C22.3813 34.7495 20.6938 34.2808 19.1469 33.4839L13.6625 34.8901L15.1156 29.4995C14.225 27.9526 13.7094 26.1714 13.7094 24.2964C13.7094 18.5776 18.3969 13.8901 24.1156 13.8901C26.9281 13.8901 29.5531 15.0151 31.475 16.9839ZM24.1156 32.9683C28.8969 32.9683 32.8813 29.0776 32.8813 24.3433C32.8813 21.9995 31.8969 19.8433 30.2563 18.2026C28.6156 16.562 26.4594 15.6714 24.1625 15.6714C19.3813 15.6714 15.4906 19.562 15.4906 24.2964C15.4906 25.937 15.9594 27.5308 16.8031 28.937L17.0375 29.2651L16.1469 32.4526L19.4281 31.562L19.7094 31.7495C21.0688 32.5464 22.5688 32.9683 24.1156 32.9683ZM28.8969 26.4995C29.1313 26.6401 29.3188 26.687 29.3656 26.8276C29.4594 26.9214 29.4594 27.437 29.225 28.0464C28.9906 28.6558 27.9594 29.2183 27.4906 29.2651C26.6469 29.4058 25.9906 29.3589 24.35 28.6089C21.725 27.4839 20.0375 24.8589 19.8969 24.7183C19.7563 24.5308 18.8656 23.312 18.8656 21.9995C18.8656 20.7339 19.5219 20.1245 19.7563 19.8433C19.9906 19.562 20.2719 19.5151 20.4594 19.5151C20.6 19.5151 20.7875 19.5151 20.9281 19.5151C21.1156 19.5151 21.3031 19.4683 21.5375 19.9839C21.725 20.4995 22.2875 21.7651 22.3344 21.9058C22.3813 22.0464 22.4281 22.187 22.3344 22.3745C21.8656 23.3589 21.3031 23.312 21.5844 23.7808C22.6156 25.5151 23.6 26.1245 25.1469 26.8745C25.3813 27.0151 25.5219 26.9683 25.7094 26.8276C25.85 26.6401 26.3656 26.0308 26.5063 25.7964C26.6938 25.5151 26.8813 25.562 27.1156 25.6558C27.35 25.7495 28.6156 26.3589 28.8969 26.4995Z" fill="white"/>
</svg>
